<svg xmlns="http://www.w3.org/2000/svg" viewBox="0 0 320 520" role="img" aria-labelledby="t d">
<title id="t">La Sacerdotisa</title><desc id="d">Representación abstracta original del Arcano Mayor 2, La Sacerdotisa.</desc>
<defs><linearGradient id="g" x1="0" y1="0" x2="1" y2="1"><stop stop-color="#271139"/><stop offset="1" stop-color="#70324f"/></linearGradient><radialGradient id="h"><stop stop-color="#f2d98d" stop-opacity=".16"/><stop offset="1" stop-color="#f2d98d" stop-opacity="0"/></radialGradient></defs>
<rect width="320" height="520" rx="24" fill="#09071b"/><rect x="10" y="10" width="300" height="500" rx="18" fill="url(#g)" stroke="#d7b65e" stroke-width="3"/><rect x="24" y="24" width="272" height="472" rx="13" fill="none" stroke="#f2d98d" stroke-opacity=".38"/>
<circle cx="160" cy="238" r="130" fill="url(#h)"/><circle cx="114" cy="153" r="1" fill="#f6e4aa" opacity=".55"/><circle cx="167" cy="214" r="2" fill="#f6e4aa" opacity=".55"/><circle cx="220" cy="275" r="1" fill="#f6e4aa" opacity=".55"/><circle cx="273" cy="336" r="2" fill="#f6e4aa" opacity=".55"/><circle cx="86" cy="147" r="1" fill="#f6e4aa" opacity=".55"/><circle cx="139" cy="208" r="2" fill="#f6e4aa" opacity=".55"/>
<text x="42" y="62" fill="#f2d98d" font-size="26" font-family="Georgia,serif">2</text><text x="278" y="62" text-anchor="end" fill="#f2d98d" font-size="24">✦</text>
<path d="M188 150 A88 88 0 1 0 210 320 A68 68 0 1 1 188 150" stroke="#f2d98d" stroke-width="6" fill="none" stroke-linecap="round" stroke-linejoin="round"/><circle cx="115" cy="195" r="5" fill="#f2d98d"/>
<path d="M72 405 H248" stroke="#f2d98d" stroke-opacity=".42"/><text x="160" y="440" text-anchor="middle" fill="#fff7df" font-size="22" font-family="Georgia,serif">La Sacerdotisa</text>
</svg>