<svg xmlns="http://www.w3.org/2000/svg" viewBox="0 0 320 520" role="img" aria-labelledby="t d">
<title id="t">La Emperatriz</title><desc id="d">Representación abstracta original del Arcano Mayor 3, La Emperatriz.</desc>
<defs><linearGradient id="g" x1="0" y1="0" x2="1" y2="1"><stop stop-color="#132f3a"/><stop offset="1" stop-color="#2f6b68"/></linearGradient><radialGradient id="h"><stop stop-color="#f2d98d" stop-opacity=".16"/><stop offset="1" stop-color="#f2d98d" stop-opacity="0"/></radialGradient></defs>
<rect width="320" height="520" rx="24" fill="#09071b"/><rect x="10" y="10" width="300" height="500" rx="18" fill="url(#g)" stroke="#d7b65e" stroke-width="3"/><rect x="24" y="24" width="272" height="472" rx="13" fill="none" stroke="#f2d98d" stroke-opacity=".38"/>
<circle cx="160" cy="238" r="130" fill="url(#h)"/><circle cx="151" cy="182" r="1" fill="#f6e4aa" opacity=".55"/><circle cx="204" cy="243" r="2" fill="#f6e4aa" opacity=".55"/><circle cx="257" cy="304" r="1" fill="#f6e4aa" opacity=".55"/><circle cx="70" cy="115" r="2" fill="#f6e4aa" opacity=".55"/><circle cx="123" cy="176" r="1" fill="#f6e4aa" opacity=".55"/><circle cx="176" cy="237" r="2" fill="#f6e4aa" opacity=".55"/>
<text x="42" y="62" fill="#f2d98d" font-size="26" font-family="Georgia,serif">3</text><text x="278" y="62" text-anchor="end" fill="#f2d98d" font-size="24">✦</text>
<circle cx="160" cy="240" r="30" stroke="#f2d98d" stroke-width="6" fill="none" stroke-linecap="round" stroke-linejoin="round"/><ellipse cx="160" cy="175" rx="28" ry="55" transform="rotate(0 160 240)" stroke="#f2d98d" stroke-width="6" fill="none" stroke-linecap="round" stroke-linejoin="round"/><ellipse cx="160" cy="175" rx="28" ry="55" transform="rotate(60 160 240)" stroke="#f2d98d" stroke-width="6" fill="none" stroke-linecap="round" stroke-linejoin="round"/><ellipse cx="160" cy="175" rx="28" ry="55" transform="rotate(120 160 240)" stroke="#f2d98d" stroke-width="6" fill="none" stroke-linecap="round" stroke-linejoin="round"/>
<path d="M72 405 H248" stroke="#f2d98d" stroke-opacity=".42"/><text x="160" y="440" text-anchor="middle" fill="#fff7df" font-size="22" font-family="Georgia,serif">La Emperatriz</text>
</svg>